<?xml version="1.0" standalone="no"?>
<!DOCTYPE svg PUBLIC "-//W3C//DTD SVG 20010904//EN"
 "http://www.w3.org/TR/2001/REC-SVG-20010904/DTD/svg10.dtd">
<svg version="1.0" xmlns="http://www.w3.org/2000/svg"
 width="180.000000pt" height="180.000000pt" viewBox="0 0 180.000000 180.000000"
 preserveAspectRatio="xMidYMid meet">
<metadata>
Created by potrace 1.14, written by Peter Selinger 2001-2017
</metadata>
<g transform="translate(0.000000,180.000000) scale(0.100000,-0.100000)"
fill="#000000" stroke="none">
<path d="M789 1795 c-3 -2 -23 -7 -45 -9 -45 -6 -169 -43 -199 -59 -11 -6 -22
-12 -25 -13 -3 -1 -15 -5 -27 -9 -13 -4 -23 -11 -23 -15 0 -4 -11 -11 -25 -14
-14 -4 -25 -11 -25 -16 0 -6 -5 -10 -11 -10 -17 0 -96 -65 -158 -129 -101
-106 -173 -230 -217 -378 -24 -79 -27 -104 -27 -238 0 -121 4 -165 21 -227 23
-84 99 -258 113 -258 5 0 9 -5 9 -11 0 -36 156 -194 257 -260 418 -273 974
-155 1247 263 31 48 56 89 56 93 0 3 9 25 19 48 18 39 44 122 57 178 15 65 11
267 -6 349 -69 334 -325 605 -653 690 -76 20 -325 39 -338 25z"/>
</g>
</svg>
